<svg width="160" height="154" viewBox="0 0 160 154" fill="none" xmlns="http://www.w3.org/2000/svg">
<path d="M73.4582 153.66L76.4954 119.052L55.6691 153.202L49.5947 152.946L43.5204 150.689L70.4211 116.449L28.7684 140.71L23.9957 136.937L19.223 131.164L66.0822 112.11L9.24375 116.412L5.8574 111.338L4.47105 104.264L63.4789 106.035L1 86.4747L0 79.9664L1 73.4582L63.4789 99.5273L4.47105 55.6691L5.8574 48.8117L9.24375 43.9543L66.0822 93.4529L19.223 28.7684L22.9957 23.2127L28.7684 19.6569L70.4211 88.6802L43.5204 9.67762L48.5947 6.07434L55.6691 4.47105L76.4954 86.5108L73.4582 1L79.9664 0L86.4747 1L83.0036 86.0769L104.264 4.47105L111.121 6.07433L115.979 9.67762L89.0779 88.6802L131.164 19.6569L136.72 23.2127L140.276 28.7684L93.8507 93.4529L150.255 43.9543L153.859 48.8117L155.462 55.6691L96.0201 99.5273L158.933 73.4582L159.933 79.9664L158.933 86.4747L96.0201 106.035L155.462 104.264L153.859 111.338L150.255 116.412L93.8507 112.11L140.276 131.164L136.72 136.937L131.164 140.71L89.0779 116.449L115.979 150.689L110.121 152.946L104.264 153.202L83.0036 119.052L86.4747 153.66H73.4582Z" fill="black"/>
</svg>
